<svg width="300" height="300" viewBox="0 0 300 300" fill="none" xmlns="http://www.w3.org/2000/svg">
<circle cx="150" cy="150" r="150" fill="#FFE0B5"/>
<path d="M122.093 234.4C133.56 234.4 143.693 232 152.493 227.2C161.426 222.4 168.426 215.8 173.493 207.4C178.56 199 181.093 189.467 181.093 178.8V83H153.893V177.4C153.893 183.667 152.493 189.267 149.693 194.2C147.026 199 143.293 202.8 138.493 205.6C133.826 208.267 128.36 209.6 122.093 209.6C115.96 209.6 110.493 208.267 105.693 205.6C100.893 202.8 97.093 199 94.293 194.2C91.6263 189.267 90.293 183.667 90.293 177.4V83H63.093V178.8C63.093 189.467 65.6263 199 70.693 207.4C75.7596 215.8 82.693 222.4 91.493 227.2C100.426 232 110.626 234.4 122.093 234.4ZM208.248 232H235.448V83H208.248V232Z" fill="#0D5C63"/>
</svg>
